<svg width="12.000000" height="12.000000" viewBox="0 0 12 12" fill="none" xmlns="http://www.w3.org/2000/svg" xmlns:xlink="http://www.w3.org/1999/xlink">
	<desc>
			Created with Pixso.
	</desc>
	<defs>
		<clipPath id="clip1_196">
			<rect id="chat" rx="0.000000" width="11.000000" height="11.000000" transform="translate(0.500000 0.500000)" fill="white" fill-opacity="0"/>
		</clipPath>
	</defs>
	<rect id="chat" rx="0.000000" width="11.000000" height="11.000000" transform="translate(0.500000 0.500000)" fill="#FFFFFF" fill-opacity="0"/>
	<g clip-path="url(#clip1_196)">
		<path id="Vector" d="M10.24 3.51L9.18 3.51L9.18 1.75C9.18 0.78 8.39 0 7.42 0L1.75 0C0.78 0 0 0.78 0 1.75L0 5.27C0 6.12 0.6 6.83 1.4 6.99L1.4 8.08C1.4 8.21 1.47 8.33 1.59 8.39C1.7 8.45 1.84 8.45 1.95 8.37L2.81 7.8L2.81 8.78C2.81 9.75 3.6 10.54 4.57 10.54L8.02 10.54L10.04 11.93C10.15 12.01 10.29 12.02 10.4 11.95C10.52 11.89 10.59 11.77 10.59 11.64L10.59 10.51C11.39 10.34 12 9.63 12 8.78L12 5.27C12 4.3 11.21 3.51 10.24 3.51ZM1.75 6.32C1.17 6.32 0.7 5.85 0.7 5.27L0.7 1.75C0.7 1.17 1.17 0.7 1.75 0.7L7.42 0.7C8.01 0.7 8.48 1.17 8.48 1.75L8.48 5.27C8.48 5.85 8.01 6.32 7.42 6.32L3.86 6.32C3.79 6.32 3.72 6.34 3.67 6.38L2.1 7.42L2.1 6.67C2.1 6.48 1.95 6.32 1.75 6.32ZM11.29 8.78C11.29 9.37 10.82 9.84 10.24 9.84C10.04 9.84 9.89 10 9.89 10.19L9.89 10.97L8.33 9.9C8.27 9.86 8.2 9.84 8.13 9.84L4.57 9.84C3.98 9.84 3.51 9.37 3.51 8.78L3.51 7.33L3.97 7.03L7.42 7.03C8.39 7.03 9.18 6.24 9.18 5.27L9.18 4.21L10.24 4.21C10.82 4.21 11.29 4.69 11.29 5.27L11.29 8.78Z" fill="#FFFFFF" fill-opacity="0.500000" fill-rule="nonzero"/>
		<path id="Vector" d="M2.46 2.46L5.32 2.46C5.51 2.46 5.67 2.3 5.67 2.1C5.67 1.91 5.51 1.75 5.32 1.75L2.46 1.75C2.26 1.75 2.1 1.91 2.1 2.1C2.1 2.3 2.26 2.46 2.46 2.46Z" fill="#FFFFFF" fill-opacity="0.500000" fill-rule="nonzero"/>
		<path id="Vector" d="M2.46 3.86L5.32 3.86C5.51 3.86 5.67 3.7 5.67 3.51C5.67 3.32 5.51 3.16 5.32 3.16L2.46 3.16C2.26 3.16 2.1 3.32 2.1 3.51C2.1 3.7 2.26 3.86 2.46 3.86Z" fill="#FFFFFF" fill-opacity="0.500000" fill-rule="nonzero"/>
		<path id="Vector" d="M2.46 5.27L6.72 5.27C6.92 5.27 7.07 5.11 7.07 4.92C7.07 4.72 6.92 4.57 6.72 4.57L2.46 4.57C2.26 4.57 2.1 4.72 2.1 4.92C2.1 5.11 2.26 5.27 2.46 5.27Z" fill="#FFFFFF" fill-opacity="0.500000" fill-rule="nonzero"/>
		<path id="Vector" d="M7.07 2.1C7.07 2.3 6.92 2.46 6.72 2.46C6.53 2.46 6.37 2.3 6.37 2.1C6.37 1.91 6.53 1.75 6.72 1.75C6.92 1.75 7.07 1.91 7.07 2.1Z" fill="#FFFFFF" fill-opacity="0.500000" fill-rule="nonzero"/>
		<path id="Vector" d="M7.07 3.51C7.07 3.7 6.92 3.86 6.72 3.86C6.53 3.86 6.37 3.7 6.37 3.51C6.37 3.32 6.53 3.16 6.72 3.16C6.92 3.16 7.07 3.32 7.07 3.51Z" fill="#FFFFFF" fill-opacity="0.500000" fill-rule="nonzero"/>
		<path id="Vector" d="M9.53 8.08L5.32 8.08C5.12 8.08 4.96 8.24 4.96 8.43C4.96 8.63 5.12 8.78 5.32 8.78L9.53 8.78C9.73 8.78 9.89 8.63 9.89 8.43C9.89 8.24 9.73 8.08 9.53 8.08Z" fill="#FFFFFF" fill-opacity="0.500000" fill-rule="nonzero"/>
	</g>
</svg>
