<svg width="64.000092" height="55.714844" viewBox="0 0 64.0001 55.7148" fill="none" xmlns="http://www.w3.org/2000/svg" xmlns:xlink="http://www.w3.org/1999/xlink">
	<desc>
			Created with Pixso.
	</desc>
	<defs/>
	<g opacity="0.100000">
		<path id="Vector" d="M25.71 11.06C27.31 10.4 27.98 8.51 27.26 6.98L24.73 1.73C24 0.25 22.25 -0.41 20.7 0.25C16.31 2.09 12.54 4.48 9.55 7.39C5.88 10.8 3.4 14.73 2.06 19.06C0.72 23.44 0 29.41 0 37L0 52.65C0 54.33 1.39 55.71 3.09 55.71L23.38 55.71C25.09 55.71 26.48 54.33 26.48 52.65L26.48 32.62C26.48 30.94 25.09 29.56 23.38 29.56L13.68 29.56C13.78 24.41 15.02 20.28 17.29 17.17C19.15 14.68 21.94 12.64 25.71 11.06Z" fill="#FFFFFF" fill-opacity="1.000000" fill-rule="nonzero"/>
		<path id="Vector" d="M62.16 11.06C63.76 10.4 64.43 8.51 63.71 6.98L61.18 1.78C60.45 0.3 58.7 -0.36 57.15 0.3C52.81 2.14 49.09 4.53 46.05 7.39C42.38 10.85 39.85 14.78 38.51 19.11C37.17 23.39 36.5 29.36 36.5 37L36.5 52.65C36.5 54.33 37.89 55.71 39.59 55.71L59.89 55.71C61.59 55.71 62.98 54.33 62.98 52.65L62.98 32.62C62.98 30.94 61.59 29.56 59.89 29.56L50.13 29.56C50.23 24.41 51.47 20.28 53.74 17.17C55.6 14.68 58.39 12.64 62.16 11.06Z" fill="#FFFFFF" fill-opacity="1.000000" fill-rule="nonzero"/>
	</g>
</svg>
